
<svg xmlns="http://www.w3.org/2000/svg" version="1.1" xmlns:xlink="http://www.w3.org/1999/xlink" preserveAspectRatio="none" x="0px" y="0px" width="640px" height="360px" viewBox="0 0 640 360">
<defs/>

<g id="Layer_1">
<g transform="matrix( 1.1603851318359375, 0, 0, 1.1603851318359375, -60.6,-21.25) ">
<g transform="matrix( 0.8617706298828125, 0, 0, 0.8617706298828125, 52.2,18.3) ">
<path stroke="#3ECFCC" stroke-width="10" stroke-linejoin="round" stroke-linecap="round" fill="none" d="
M 209.18954315185547 168.12485351562498
L 209.18954315185547 118.75046615600587 343.56214141845703 118.75046615600587 343.56214141845703 168.12485351562498
M 343.56214141845703 253.7612762451172
L 343.56214141845703 257.47450866699216 339.6168319702148 257.47450866699216
M 213.07683334350585 257.47450866699216
L 209.18954315185547 257.47450866699216 209.18954315185547 253.819295501709 209.18954315185547 210.8270263671875
M 339.6168319702148 257.47450866699216
L 213.07683334350585 257.47450866699216
M 343.56214141845703 210.8270263671875
L 343.56214141845703 253.7612762451172
M 343.56214141845703 168.12485351562498
L 343.56214141845703 210.8270263671875
M 209.18954315185547 210.8270263671875
L 209.18954315185547 168.12485351562498"/>
</g>

<g transform="matrix( 0.8617706298828125, 0, 0, 0.8617706298828125, 52.2,18.3) ">
<path stroke="#3ECFCC" stroke-width="5" stroke-linejoin="round" stroke-linecap="round" fill="none" d="
M 343.56214141845703 168.12485351562498
L 369.2066528320312 168.12485351562498
M 369.2066528320312 210.8270263671875
L 368.88754692077634 210.8270263671875
M 209.18954315185547 210.8270263671875
L 184.47333984374998 210.8270263671875
M 368.88754692077634 210.8270263671875
L 343.56214141845703 210.8270263671875
M 209.18954315185547 168.12485351562498
L 343.56214141845703 168.12485351562498
M 343.56214141845703 210.8270263671875
L 209.18954315185547 210.8270263671875
M 184.47333984374998 168.12485351562498
L 209.18954315185547 168.12485351562498"/>
</g>

<g transform="matrix( 0.8617706298828125, 0, 0, 0.8617706298828125, 52.2,18.3) ">
<path stroke="#3ECFCC" stroke-width="15" stroke-linejoin="round" stroke-linecap="round" fill="none" d="
M 209.18954315185547 253.819295501709
Q 208.95723948776723 253.58699183762076 208.7253890991211 253.35514144897462 180.760107421875 225.38985977172854 180.760107421875 185.76270751953126 180.760107421875 146.13555526733398 208.7253890991211 118.11225433349608 236.748690032959 90.14697265625 276.3758422851562 90.14697265625 316.0029945373535 90.14697265625 343.96827621459954 118.11225433349608 371.9915771484375 146.13555526733398 371.9915771484375 185.76270751953126 371.9915771484375 198.93942462205888 368.88754692077634 210.8270263671875
M 339.6168319702148 257.47450866699216
Q 312.97556785941117 281.3784423828125 276.3758422851562 281.3784423828125 239.77543679773808 281.3784423828125 213.07683334350585 257.47450866699216
M 343.56214141845703 253.7612762451172
Q 341.6225758016109 255.68497722148896 339.6168319702148 257.47450866699216
M 213.07683334350585 257.47450866699216
Q 211.10485853254798 255.71194711029528 209.18954315185547 253.819295501709
M 343.96827621459954 253.35514144897462
Q 343.7656620919704 253.55820884704588 343.56214141845703 253.7612762451172
M 368.88754692077634 210.8270263671875
Q 362.67336724698544 234.68880546689036 343.96827621459954 253.35514144897462"/>
</g>
</g>

<g>
<g>
<g>
<path fill="#FF4747" stroke="none" d="
M 133.6 193.05
Q 141.1 193.05 144.25 197.85 147.35 202.65 145.25 211.5
L 139.2 236.95 145.6 236.95 157.45 187.1 151.3 187.1 149 196.75
Q 148.10859375 192.1939453125 144.65 189.6 140.65 186.6 133.75 186.6
L 132.15 193.15
Q 132.5 193.15 132.9 193.1 133.25 193.05 133.6 193.05
M 73.75 190.35
Q 69.35 186.6 61.9 186.6 56.15 186.6 51.25 188.95 46.35 191.25 42.9 196 39.35 200.75 37.65 207.95
L 30.75 236.95 37.15 236.95 43.9 208.65
Q 45.75 200.75 50.3 196.75 54.85 192.7 61.35 192.7 66.25 192.7 69.3 194.85 72.35 196.95 73.35 201 74.35 205.05 73 210.75
L 66.75 236.95 73.15 236.95 79.9 208.65
Q 81.75 200.75 86.3 196.75 90.95 192.7 97.45 192.7 102.25 192.7 105.3 194.85 108.45 196.95 109.45 201 110.45 205.05 109.1 210.75
L 102.85 236.95 109.25 236.95 121.1 187.1 114.95 187.1 112.8 196.05
Q 111.5685546875 192.163671875 108.35 189.7 104.25 186.6 97.65 186.6 90.65 186.6 84.85 190.25 80.8814453125 192.7912109375 78.1 197.1 76.955859375 193.113671875 73.75 190.35
M 230.65 170.45
L 229.2 176.5 265.95 176.5 259.7 202.65 226.95 202.65 225.5 208.75 258.25 208.75 251.55 236.95 258.25 236.95 274.1 170.45 230.65 170.45
M 195 186.6
Q 187.9 186.6 181.65 189.8 175.4 193.05 171 198.75 166.5 204.5 164.7 211.95 162.95 219.35 164.7 225.1 166.4 230.85 171.15 234.15 175.9 237.4 182.9 237.4 189.8 237.4 196 234.15 202.25 230.85 206.75 225.1 211.35 219.35 213.1 211.95 214.9 204.5 213.05 198.75 211.25 193.05 206.6 189.8 201.95 186.6 195 186.6
M 193.5 192.5
Q 198.6 192.5 201.95 194.9 205.4 197.35 206.65 201.7 207.95 206.05 206.55 211.95 205.15 217.75 201.75 222.2 198.4 226.6 193.85 229 189.3 231.45 184.3 231.45 179.1 231.45 175.75 229 172.3 226.6 171.1 222.2 169.85 217.75 171.25 211.95 172.65 206.05 176 201.7 179.3 197.35 183.85 194.9 188.4 192.5 193.5 192.5
M 473 162
Q 473.7 162.05 474.6 162.1
L 477.85 148.45
Q 470.65 148.45 464.95 151.2 461.324609375 153.0287109375 458.55 155.9
L 460.15 149.2 445.95 149.2 433.85 200.3 448.7 200.3 454.4 176.2
Q 456.15 168.85 460.7 165.35 465.3 161.95 471.35 161.95 472.2 161.95 473 162
M 374.35 188.3
Q 376.6 194.2 382.05 197.65 387.6 201.05 395.75 201.05 403.85 201.05 411 197.65 418.2 194.2 423.2 188.3 428.25 182.35 430.05 174.75 431.9 166.95 429.65 161.05 427.4 155.15 421.85 151.85 416.3 148.45 408.2 148.45 400.05 148.45 392.9 151.85 385.8 155.15 380.75 161.1 375.7 167.05 373.9 174.75 372.1 182.35 374.35 188.3
M 392.45 167.15
Q 394.9 164.05 398.3 162.3 401.65 160.6 405.35 160.6 409.1 160.6 411.6 162.3 414.1 164.05 415.1 167.15 416.05 170.3 415 174.75 413.95 179.1 411.5 182.3 409.05 185.5 405.7 187.15 402.4 188.9 398.65 188.9 394.95 188.9 392.4 187.15 389.85 185.5 388.85 182.3 387.85 179.1 388.9 174.75 389.95 170.3 392.45 167.15
M 324.45 193.25
L 351.85 160.3 342.45 200.3 356.9 200.3 372.4 133.8 359.75 133.8 325.55 175 310.35 133.8 297.65 133.8 281.95 200.3 296.35 200.3 305.6 161.2 317.5 193.25 324.45 193.25
M 561.15 175
Q 562.25 170.3 564.55 167.25 566.85 164.2 570 162.75 573.15 161.25 576.65 161.25 581.6 161.25 583.6 164.2 585.6 167.15 584.15 173.3
L 577.75 200.3 592.6 200.3 599.5 171.05
Q 601.35 163.25 599.75 158.25 598.2 153.25 594 150.85 589.7 148.45 583.65 148.45 577.1 148.45 571.3 151.2 568.416015625 152.579296875 565.95 154.55
L 571.8 129.8 556.95 129.8 540.3 200.3 555.15 200.3 561.15 175
M 501.1 149.2
L 486.9 149.2 470.45 218.7 485.3 218.7 490.9 194.85
Q 492.26953125 196.8796875 494.25 198.2 498.35 201.05 504.85 201.05 512.05 201.05 518.6 197.85 525.1 194.6 529.9 188.7 534.7 182.8 536.6 174.75 538.5 166.75 536.45 160.85 534.45 155 529.5 151.7 524.5 148.45 517.3 148.45 510.55 148.45 505.05 151.25 502.140625 152.7703125 499.65 155.1
L 501.1 149.2
M 511.85 160.6
Q 515.6 160.6 518.1 162.3 520.5 164.05 521.6 167.15 522.6 170.3 521.55 174.75 520.5 179.1 518 182.3 515.45 185.5 512.2 187.15 508.9 188.9 505.15 188.9 501.5 188.9 498.95 187.15 496.4 185.5 495.45 182.3 494.5 179.1 495.55 174.75 496.6 170.3 499.05 167.15 501.45 164.05 504.85 162.3 508.2 160.6 511.85 160.6 Z"/>
</g>
</g>
</g>
</g>
</svg>
